<svg xmlns="http://www.w3.org/2000/svg" width="200" height="200" viewBox="0 0 200 200">
  <!-- Background circle -->
  <circle cx="100" cy="100" r="100" fill="#e84393" />
  
  <!-- Head -->
  <circle cx="100" cy="85" r="40" fill="#ffeaa7" />
  
  <!-- Hair -->
  <path d="M60 85 Q60 45 100 45 Q140 45 140 85 Q140 95 130 105 Q120 115 100 115 Q80 115 70 105 Q60 95 60 85 Z" fill="#6c5ce7" />
  
  <!-- Eyes -->
  <circle cx="85" cy="80" r="5" fill="#2c3e50" />
  <circle cx="115" cy="80" r="5" fill="#2c3e50" />
  
  <!-- Smile -->
  <path d="M85 100 Q100 115 115 100" fill="none" stroke="#2c3e50" stroke-width="3" />
  
  <!-- Neck -->
  <rect x="90" y="125" width="20" height="15" fill="#ffeaa7" />
  
  <!-- Body/Dress -->
  <path d="M65 140 L90 125 L110 125 L135 140 L135 200 L65 200 Z" fill="#fd79a8" />
  
  <!-- Necklace -->
  <path d="M90 130 Q100 135 110 130" fill="none" stroke="#f1c40f" stroke-width="3" />
</svg>